<mxfile host="Electron" agent="Mozilla/5.0 (X11; Linux x86_64) AppleWebKit/537.36 (KHTML, like Gecko) draw.io/27.0.9 Chrome/134.0.6998.205 Electron/35.4.0 Safari/537.36" version="27.0.9">
  <diagram name="Page-1" id="WvX-RVqKzF79ArY8NLas">
    <mxGraphModel dx="133" dy="603" grid="1" gridSize="10" guides="1" tooltips="1" connect="1" arrows="1" fold="1" page="1" pageScale="1" pageWidth="850" pageHeight="1100" math="0" shadow="0">
      <root>
        <mxCell id="0" />
        <mxCell id="1" parent="0" />
        <mxCell id="J-Xv4aSy1q9ObiHkibzW-1" value="Usuario" style="shape=umlActor;verticalLabelPosition=bottom;verticalAlign=top;html=1;" parent="1" vertex="1">
          <mxGeometry x="870" y="180" width="30" height="60" as="geometry" />
        </mxCell>
        <mxCell id="J-Xv4aSy1q9ObiHkibzW-2" value="Gestión de riesgo" style="swimlane;whiteSpace=wrap;html=1;movable=1;resizable=1;rotatable=1;deletable=1;editable=1;locked=0;connectable=1;" parent="1" vertex="1">
          <mxGeometry x="960" y="15" width="440" height="390" as="geometry">
            <mxRectangle x="170" y="90" width="140" height="30" as="alternateBounds" />
          </mxGeometry>
        </mxCell>
        <mxCell id="J-Xv4aSy1q9ObiHkibzW-3" value="Llamar a números de emergencia" style="ellipse;whiteSpace=wrap;html=1;" parent="J-Xv4aSy1q9ObiHkibzW-2" vertex="1">
          <mxGeometry x="100" y="65" width="160" height="60" as="geometry" />
        </mxCell>
        <mxCell id="J-Xv4aSy1q9ObiHkibzW-4" value="Ver el riesgo en categorías" style="ellipse;whiteSpace=wrap;html=1;" parent="J-Xv4aSy1q9ObiHkibzW-2" vertex="1">
          <mxGeometry x="275" y="115" width="135" height="50" as="geometry" />
        </mxCell>
        <mxCell id="J-Xv4aSy1q9ObiHkibzW-5" value="Calcular el riesgo" style="ellipse;whiteSpace=wrap;html=1;" parent="J-Xv4aSy1q9ObiHkibzW-2" vertex="1">
          <mxGeometry x="50" y="295" width="140" height="50" as="geometry" />
        </mxCell>
        <mxCell id="J-Xv4aSy1q9ObiHkibzW-6" style="edgeStyle=orthogonalEdgeStyle;rounded=0;orthogonalLoop=1;jettySize=auto;html=1;exitX=0.5;exitY=1;exitDx=0;exitDy=0;" parent="J-Xv4aSy1q9ObiHkibzW-2" source="J-Xv4aSy1q9ObiHkibzW-5" target="J-Xv4aSy1q9ObiHkibzW-5" edge="1">
          <mxGeometry relative="1" as="geometry" />
        </mxCell>
        <mxCell id="J-Xv4aSy1q9ObiHkibzW-13" value="Recibir alertas de riesgo" style="ellipse;whiteSpace=wrap;html=1;" parent="J-Xv4aSy1q9ObiHkibzW-2" vertex="1">
          <mxGeometry x="70" y="175" width="170" height="50" as="geometry" />
        </mxCell>
        <mxCell id="J-Xv4aSy1q9ObiHkibzW-14" value="Enviar su ubicación" style="ellipse;whiteSpace=wrap;html=1;" parent="J-Xv4aSy1q9ObiHkibzW-2" vertex="1">
          <mxGeometry x="260" y="255" width="150" height="50" as="geometry" />
        </mxCell>
        <mxCell id="J-Xv4aSy1q9ObiHkibzW-17" value="" style="endArrow=block;dashed=1;endFill=0;endSize=12;html=1;rounded=0;exitX=1.009;exitY=0.361;exitDx=0;exitDy=0;exitPerimeter=0;entryX=0;entryY=0.5;entryDx=0;entryDy=0;" parent="J-Xv4aSy1q9ObiHkibzW-2" source="J-Xv4aSy1q9ObiHkibzW-5" target="J-Xv4aSy1q9ObiHkibzW-14" edge="1">
          <mxGeometry width="160" relative="1" as="geometry">
            <mxPoint x="285" y="325" as="sourcePoint" />
            <mxPoint x="195" y="345" as="targetPoint" />
          </mxGeometry>
        </mxCell>
        <mxCell id="J-Xv4aSy1q9ObiHkibzW-18" value="include" style="edgeLabel;html=1;align=center;verticalAlign=middle;resizable=0;points=[];" parent="J-Xv4aSy1q9ObiHkibzW-17" vertex="1" connectable="0">
          <mxGeometry x="0.0196" y="-1" relative="1" as="geometry">
            <mxPoint as="offset" />
          </mxGeometry>
        </mxCell>
        <mxCell id="J-Xv4aSy1q9ObiHkibzW-19" value="" style="endArrow=block;dashed=1;endFill=0;endSize=12;html=1;rounded=0;exitX=0.467;exitY=0;exitDx=0;exitDy=0;exitPerimeter=0;entryX=0.5;entryY=1;entryDx=0;entryDy=0;" parent="J-Xv4aSy1q9ObiHkibzW-2" source="J-Xv4aSy1q9ObiHkibzW-14" target="J-Xv4aSy1q9ObiHkibzW-4" edge="1">
          <mxGeometry width="160" relative="1" as="geometry">
            <mxPoint x="310" y="228" as="sourcePoint" />
            <mxPoint x="399" y="185" as="targetPoint" />
          </mxGeometry>
        </mxCell>
        <mxCell id="J-Xv4aSy1q9ObiHkibzW-20" value="include" style="edgeLabel;html=1;align=center;verticalAlign=middle;resizable=0;points=[];" parent="J-Xv4aSy1q9ObiHkibzW-19" vertex="1" connectable="0">
          <mxGeometry x="0.0196" y="-1" relative="1" as="geometry">
            <mxPoint as="offset" />
          </mxGeometry>
        </mxCell>
        <mxCell id="J-Xv4aSy1q9ObiHkibzW-10" value="" style="endArrow=none;html=1;rounded=0;entryX=0.004;entryY=0.676;entryDx=0;entryDy=0;entryPerimeter=0;" parent="1" source="J-Xv4aSy1q9ObiHkibzW-1" target="J-Xv4aSy1q9ObiHkibzW-3" edge="1">
          <mxGeometry width="50" height="50" relative="1" as="geometry">
            <mxPoint x="890" y="190" as="sourcePoint" />
            <mxPoint x="990" y="150" as="targetPoint" />
          </mxGeometry>
        </mxCell>
        <mxCell id="J-Xv4aSy1q9ObiHkibzW-12" value="" style="endArrow=none;html=1;rounded=0;entryX=0;entryY=0.333;entryDx=0;entryDy=0;entryPerimeter=0;" parent="1" source="J-Xv4aSy1q9ObiHkibzW-1" target="J-Xv4aSy1q9ObiHkibzW-5" edge="1">
          <mxGeometry width="50" height="50" relative="1" as="geometry">
            <mxPoint x="880" y="240" as="sourcePoint" />
            <mxPoint x="1030" y="310" as="targetPoint" />
          </mxGeometry>
        </mxCell>
        <mxCell id="J-Xv4aSy1q9ObiHkibzW-15" value="" style="endArrow=none;html=1;rounded=0;entryX=0;entryY=0.5;entryDx=0;entryDy=0;" parent="1" source="J-Xv4aSy1q9ObiHkibzW-1" target="J-Xv4aSy1q9ObiHkibzW-13" edge="1">
          <mxGeometry width="50" height="50" relative="1" as="geometry">
            <mxPoint x="930" y="258" as="sourcePoint" />
            <mxPoint x="1040" y="180" as="targetPoint" />
          </mxGeometry>
        </mxCell>
      </root>
    </mxGraphModel>
  </diagram>
</mxfile>
